
<svg xmlns="http://www.w3.org/2000/svg" viewBox="0 0 24 24">
  <path d="M16.48 6.32H9.6c-.45 0-.9.29-1.09.71a1.4 1.4 0 0 0 .12 1.4l1.91 2.53c.14.19.36.3.59.3h6a.623.623 0 0 0 .63-.65v-3.6a.712.712 0 0 0-.7-.69Zm-1.61 1.33h.58v1.65h-.58Zm-.93 0h.58v1.65h-.58Zm-.93 0h.58v1.65H13Zm-.93 0h.58v1.65h-.57V7.65Z"/>
  <path d="M11.24 12.32H3.61A.75.75 0 0 0 3 12.8v3.84c0 .34.28.65.62.65h7.61c.35 0 .63-.31.63-.65V12.8a.64.64 0 0 0-.62-.48Zm-6.23 3.42H4.5v-2.36h.51Zm.93 0h-.51v-2.36h.51Zm.93 0h-.51v-2.36h.51Zm.93 0h-.51v-2.36h.51Z"/>
  <path d="M20.69 12.32h-6a.75.75 0 0 0-.59.31l-1.9 2.52c-.28.37-.28 1.03.12 1.4.19.18.43.26.7.26h7.67c.35 0 .63-.29.63-.65V13a.64.64 0 0 0-.63-.68Zm-4.73 3.42h-1.09c-.2 0-.37-.18-.38-.38 0-.1.03-.22.1-.28l1.01-1.37c.11-.15.27-.22.46-.16.09.03.19.1.2.18.05.15.04.37.04.54v.97c0 .3-.04.5-.34.5Z"/>
</svg>
