
<svg xmlns="http://www.w3.org/2000/svg" viewBox="0 0 48 48">
  <path d="M26.2 18.5c-.5-.1-1-.2-1.6-.3-.7-.1-1.4-.2-2.1-.2-.7 0-1.3 0-1.9.1-.6.1-1.2.2-1.8.4s-1.1.4-1.6.7-1 .7-1.5 1.1c-.4.4-.8.9-1.2 1.5-.4.6-.7 1.2-.9 1.9-.1.3-.2.5-.2.8-.1.3-.1.6-.1.9 0 .3 0 .6.1.9.1.3.1.6.2.8.2.6.4 1.1.8 1.6.3.5.7 1 1.2 1.3.5.4 1 .7 1.6 1 .6.3 1.2.5 1.9.6.2 0 .3.1.5.1 0 .3-.1.6-.2.8 0 .3-.1.5-.2.8-.1.2-.2.5-.4.7l-.4.6c-.2.2-.3.3-.5.5-.5.5-1.1.9-1.8 1.2-.7.3-1.4.5-2.2.6-.8.1-1.6.2-2.5.1-.9 0-1.8-.2-2.8-.5-.3-.1-.5-.2-.7-.3-.2-.1-.5-.2-.7-.4-.5-.3-.9-.5-1.3-.9s-.8-.7-1.1-1.1c-.3-.4-.6-.9-.9-1.3-.2-.5-.5-1-.6-1.5-.2-.5-.3-1-.4-1.6-.1-.5-.1-1.1-.1-1.6 0-.6 0-1.1.1-1.7s.2-1.1.4-1.6c.6-2.3 1.8-4.1 3.4-5.6 1.6-1.5 3.5-2.5 5.8-3 .3-.1.5-.1.8-.1.3 0 .5-.1.8-.1.3 0 .5 0 .8-.1h.9c.5 0 1 0 1.5.1s1 .1 1.5.3c.5.1 1 .3 1.4.5.5.2.9.4 1.3.7.2.1.3.2.5.3.2.1.3.2.5.4.3.2.6.5.9.8.3.3.5.6.8.9.2.3.4.7.6 1 .2.4.4.7.5 1.1 0 .1.1.2.1.2v.3c0 .1 0 .1-.1.2 0 .1-.1.1-.2.1-.1.1-.3.1-.4.2-.1 0-.3.1-.5.1-.2 0-.4.1-.5.1-.2 0-.4 0-.6.1h-.6c-.1 0-.1 0-.2-.1s-.1-.1-.1-.2c-.1-.2-.2-.4-.3-.5s-.2-.4-.4-.5c-.1-.2-.3-.4-.5-.5-.2-.2-.4-.3-.6-.5-.2-.1-.5-.3-.7-.4s-.5-.2-.8-.3zm.6 11.2c-.1.3-.1.7-.3 1-.1.4-.3.7-.6 1-.2.3-.5.6-.9.9-.3.3-.7.5-1.1.7-.4.2-.8.4-1.3.5s-1 .2-1.5.3c-.5 0-1 0-1.6-.1-.5-.1-1.1-.2-1.6-.4s-1-.4-1.5-.7c-.5-.3-.9-.6-1.3-1-.4-.4-.7-.8-1-1.3s-.5-1-.7-1.5c-.2-.5-.3-1.1-.4-1.6-.1-.6-.1-1.1-.1-1.7s.1-1.1.2-1.7.3-1.1.5-1.6c.2-.5.5-1 .8-1.4.3-.4.7-.8 1.1-1.2.4-.3.9-.6 1.4-.9.5-.2 1-.4 1.5-.5.5-.1 1.1-.2 1.7-.2s1.1 0 1.7.1c.6.1 1.1.2 1.6.5.5.2 1 .5 1.5.8.5.3.9.7 1.3 1.1.4.4.7.9 1 1.4.3.5.5 1 .7 1.6.2.5.3 1.1.3 1.7.1.6.1 1.1 0 1.7 0 .5-.1 1.1-.2 1.5zM40 25.9c-.1.3-.1.7-.3 1-.1.4-.3.7-.6 1-.2.3-.5.6-.9.9-.3.3-.7.5-1.1.7-.4.2-.8.4-1.3.5s-1 .2-1.5.3c-.5 0-1 0-1.6-.1-.5-.1-1.1-.2-1.6-.4s-1-.4-1.5-.7c-.5-.3-.9-.6-1.3-1-.4-.4-.7-.8-1-1.3s-.5-1-.7-1.5c-.2-.5-.3-1.1-.4-1.6-.1-.6-.1-1.1-.1-1.7s.1-1.1.2-1.7.3-1.1.5-1.6c.2-.5.5-1 .8-1.4.3-.4.7-.8 1.1-1.2.4-.3.9-.6 1.4-.9.5-.2 1-.4 1.5-.5.5-.1 1.1-.2 1.7-.2s1.1 0 1.7.1c.6.1 1.1.2 1.6.5.5.2 1 .5 1.5.8.5.3.9.7 1.3 1.1.4.4.7.9 1 1.4.3.5.5 1 .7 1.6.2.5.3 1.1.3 1.7.1.6.1 1.1 0 1.7-.1.5-.1 1-.3 1.5zm-4.2-3.6c0-.3-.1-.6-.2-.8-.1-.3-.2-.5-.4-.7-.2-.2-.4-.4-.6-.5-.2-.1-.5-.3-.8-.4-.3-.1-.6-.2-.9-.2s-.7-.1-1 0c-.3 0-.7.1-1 .2-.3.1-.6.2-.9.4-.3.2-.5.4-.7.6-.2.2-.4.5-.5.8-.1.3-.3.6-.3.9-.1.3-.1.6-.1 1s0 .7.1 1 .2.6.3.9c.1.3.3.5.5.8.2.2.4.4.7.6.3.2.5.3.8.4s.6.2 1 .2.7.1 1 0c.3 0 .7-.1 1-.2.3-.1.6-.3.9-.4.3-.2.5-.4.7-.6.2-.2.4-.5.5-.8.1-.3.3-.6.3-.9.1-.3.1-.6.1-1 .1-.3 0-.7-.1-1z"/>
</svg>
