
<svg xmlns="http://www.w3.org/2000/svg" viewBox="0 0 512 512">
  <path d="M236.4 61.4L227 75.5c-16.8 24.4-33.3 40.1-51.1 40.1-12.3 0-21.8-6.5-25.8-18.9-1.1-3.5-1.4-7.2-1.4-10.9 0-9.2 3.5-19.5 10.6-29.7l14.5-21.2c2.2-3.2 4.9-5.9 7.5-7.9 6.8-5.1 14.2-8.1 22.3-8.1 12.3 0 22.3 6.5 26.9 18.9 1.4 4 1.9 7.5 1.9 11.7.1 4.9-1.1 10.1-3.3 16.3zM87.9 110.2l-7.7 11.6c-11.3 17.1-26.9 27.7-47 27.7-21.3 0-35.8-15.1-35.8-36.7 0-5.9 1.1-11.9 3.5-17.9l9.5-22.7c11.9-28.6 32.1-42.1 61-42.1 29.5 0 45.1 16 45.1 46.5v1.1c-.1 11.2-4 21.3-11.8 33.2l-16.8 26.4c-2.4 3.8-4.3 5.4-4.3 5.4v.8c0 .3 1.6-.5 4.3-.5h28.5c2.7 0 5.1 0 7.8.5L87.9 110.2zm-40.7-29.9c0 10.3 5.6 16.8 15.1 16.8 8.4 0 15.6-5.4 22.6-16.5L98.1 58c0-10.3-5.9-16.5-15.6-16.5-8.7 0-15.9 5.1-22.9 16.5l-12.4 22.3z"/>
  <path d="M113 195.3c-8.1-1.4-13.8-1.4-22.1-1.4h-25.3c-7.5 0-14.8-.8-14.8-.8-9.7.5-17.6-7.2-17.6-16.5 0-3.8 1.1-7.2 2.7-10.3 6.5-11.9 11.7-22.1 17.9-33.7l128.4 7.5c17.9 0 33.1 11.9 33.1 29.9 0 5.1-1.3 10.6-3.8 16.3l-97.4 176.8c-3.5 6.2-10.6 10.3-17.9 10.3-3.5 0-6.8-.8-9.7-2.7-10.1-6.5-12.9-19.7-5.9-29.3l83.7-153.8h-50.3l-50.5 93c-17.8-12.5-17.7-12.4-28.1-19.7L113 195.3zM465.5 44.8c-2.4-12.6-12.9-21.6-25.8-21.6-3.2 0-6.2.5-9.1 1.9-12.3 4.9-18.1 19.2-13.2 31 1.9 4.9 5.4 8.6 9.7 11.1L391.3 93c-14.5-7-25.3-18.9-32.3-35.3-7.7-17.9-9.1-35.8-4.6-53.2.8-3.2 1.9-5.9 3.5-8.9 0-.3.3-.5.3-.8 7.5-13.7 19.4-21.8 36.9-24.3 5.9-.8 12.6-.8 18.9 0 41.5 6.2 49.5 43.4 37.8 73.4L406.1 98c-7.5-8.9-10.1-10.3-17.9-19.2l35.8-26.1c1.2.2 23.8-3.4 41.5-7.9zm14.8 291.3L445 432.8c-8.1 22.3-19.7 38.3-42.9 38.3-18.1 0-35-10.9-35-28.8 0-4.6 1.1-9.2 3.2-13.4l65.3-152.9c9.2-21.6 19.9-34.5 41-34.5 17.9 0 33.9 10.6 33.9 28 0 4.3-1.1 8.6-3 12.6.1.3-47.9 112.5-47.9 112.5-1.1 2.7-3.5 4.3-6.5 4.3-2.2 0-4-1.1-5.1-2.7-1.6-2.7-2.2-7.3 1.1-15.7l36.7-86.1c1.6-4 2.7-7.5 2.7-10.9 0-5.1-2.7-7.8-7.5-7.8-6.5 0-10.3 5.4-13.7 13.4l-37.5 87.7c-1.6 3.8-2.7 7.5-2.7 10.9 0 4.9 2.7 7.5 7.5 7.5 6.5 0 10.3-5.1 13.4-13.4l10.6-25S463.9 297 480.3 336.1zm-370.5-82.3c-2.4-1.4-5.4-2.2-8.6-2.2-17.6 0-28.8 14.8-36.4 34.5l-64.2 151.9c-2.2 4.9-3 9.7-3 14.5 0 17.9 17.1 28.8 35 28.8 23.1 0 34.8-16 42.9-38.3l17.6-41.3L145 294.9c1.1-2.4 1.6-5.4 1.6-8.4.3-5-1.9-10.3-6.8-13.8z"/>
</svg>
