
<svg xmlns="http://www.w3.org/2000/svg" viewBox="0 0 24 24">
  <path d="M19.96 5.76a1.14 1.14 0 0 1 .18.6v11.28c0 .24-.06.42-.18.6a.8.8 0 0 1-.54.18h-2.94a.8.8 0 0 1-.54-.18c-.12-.18-.18-.36-.18-.6V6.36c0-.24.06-.42.18-.6a.8.8 0 0 1 .54-.18h2.94a.8.8 0 0 1 .54.18zM14.28 8.04c.12.18.18.36.18.6v9c0 .24-.06.42-.18.6a.8.8 0 0 1-.54.18h-2.94a.8.8 0 0 1-.54-.18c-.12-.18-.18-.36-.18-.6v-9c0-.24.06-.42.18-.6a.8.8 0 0 1 .54-.18h2.94a.8.8 0 0 1 .54.18zM8.1 8.04c.12.18.18.36.18.6v9c0 .24-.06.42-.18.6a.8.8 0 0 1-.54.18H4.62a.8.8 0 0 1-.54-.18c-.12-.18-.18-.36-.18-.6v-9c0-.24.06-.42.18-.6a.8.8 0 0 1 .54-.18H7.56a.8.8 0 0 1 .54.18z"/>
</svg>
