<?xml version="1.0" encoding="UTF-8" standalone="no"?>
<svg
   version="1.1"
   width="1000"
   height="215.70427"
   id="svg26"
   viewBox="0 0 750 161.77819"
   sodipodi:docname="BBK Eletronics.svg"
   xml:space="preserve"
   inkscape:version="1.3.2 (091e20e, 2023-11-25, custom)"
   xmlns:inkscape="http://www.inkscape.org/namespaces/inkscape"
   xmlns:sodipodi="http://sodipodi.sourceforge.net/DTD/sodipodi-0.dtd"
   xmlns="http://www.w3.org/2000/svg"
   xmlns:svg="http://www.w3.org/2000/svg"><defs
     id="defs30" /><sodipodi:namedview
     id="namedview28"
     pagecolor="#ffffff"
     bordercolor="#000000"
     borderopacity="0.25"
     inkscape:showpageshadow="2"
     inkscape:pageopacity="0.0"
     inkscape:pagecheckerboard="0"
     inkscape:deskcolor="#d1d1d1"
     inkscape:document-units="pt"
     inkscape:zoom="0.716"
     inkscape:cx="500"
     inkscape:cy="108.24022"
     inkscape:window-width="1366"
     inkscape:window-height="705"
     inkscape:window-x="-8"
     inkscape:window-y="-8"
     inkscape:window-maximized="1"
     inkscape:current-layer="svg26" /><path
     d="M 69.12096,11.329813 106.06044,11.030497 92.394475,58.246241 118.64855,58.206498 136.29681,0.75742629 182.18702,0.45811072 165.87033,57.342262 h 80.06292 l -5.06016,15.919792 h -79.64473 l -21.71289,73.671376 c 25.02328,-5.30163 46.42781,-41.47765 49.05422,-58.258488 l 47.8967,0.302332 c -7.97063,31.989156 -23.62162,45.572616 -33.96513,54.401446 -10.38307,8.83167 -30.15369,18.2437 -55.55577,18.28344 -20.32028,0.0548 -146.94549,0 -146.94549,0 L 4.9808452,147.06774 H 92.794568 L 114.03409,75.760194 25.099748,75.741742 30.220936,58.823404 h 24.83716 z"
     style="fill:#0955a2;fill-opacity:1;fill-rule:evenodd;stroke-width:1.77425"
     id="path4" /><path
     d="m 241.09292,10.031951 c 7.72011,-0.3268168 14.99452,3.872295 14.56391,11.812408 -0.46112,7.942951 -7.74778,21.728145 -23.16972,21.728145 -13.6995,0 -46.65064,0.02448 -46.65064,0.02448 l 10.28832,-33.473487 z"
     style="fill:#0955a2;fill-opacity:1;fill-rule:evenodd;stroke-width:1.77425"
     id="path6" /><path
     d="m 43.987856,91.456962 c -8.395208,-0.213796 -13.678385,3.728759 -16.634459,6.275692 -4.510492,3.835566 -9.112713,11.509896 -8.28201,16.750316 1.093292,7.06665 7.051392,10.58481 14.230885,10.58481 5.280161,0 35.290494,0 46.036934,0.0428 l 9.689876,-33.711595 z"
     style="fill:#0955a2;fill-opacity:1;fill-rule:evenodd;stroke-width:1.77425"
     id="path8" /><path
     d="m 317.93417,10.441092 36.96999,-0.277847 -13.69967,47.179017 26.22657,0.01845 L 385.14639,0 431.02453,0.11000335 414.69861,56.48122 h 80.07818 l -5.07843,15.86479 h -79.63249 l -21.69159,73.69568 c 25.0082,-5.29844 46.39427,-41.46541 49.03594,-58.252452 l 47.8692,0.256556 c -7.94313,31.989156 -23.60033,45.627616 -33.97719,54.447226 -10.33429,8.8471 -31.00285,17.97508 -55.455,17.93232 -20.28994,-0.0245 -147.0342,0 -147.0342,0 l 4.9961,-14.2371 h 87.78321 l 21.2915,-71.310734 h -88.9283 l 5.10593,-16.933596 h 24.8462 z"
     style="fill:#0955a2;fill-opacity:1;fill-rule:evenodd;stroke-width:1.77425"
     id="path10" /><path
     d="m 489.90595,9.1677147 c 7.73537,-0.342075 15.00978,3.8722953 14.56994,11.8001653 -0.4519,7.924677 -7.71709,21.709871 -23.16954,21.709871 -13.67821,0 -46.6416,0.02129 -46.6416,0.02129 l 10.2823,-33.4397762 z"
     style="fill:#0955a2;fill-opacity:1;fill-rule:evenodd;stroke-width:1.77425"
     id="path12" /><path
     d="m 292.8039,90.586694 c -8.37072,-0.220007 -13.66596,3.698064 -16.63747,6.24819 -4.50127,3.841606 -9.11272,11.500676 -8.29426,16.783846 1.11157,7.04235 7.0789,10.57257 14.24632,10.57257 5.29223,0 35.27808,0 46.04599,0.0245 l 9.68686,-33.699346 z"
     style="fill:#0955a2;fill-opacity:1;fill-rule:evenodd;stroke-width:1.77425"
     id="path14" /><path
     d="M 625.59189,1.7712314 673.81541,1.6124362 670.28519,14.545636 750,14.860033 745.28778,31.601301 533.52121,31.32647 l 5.29844,-17.0436 83.41306,-0.119052 z"
     style="fill:#0955a2;fill-opacity:1;fill-rule:evenodd;stroke-width:1.77425"
     id="path16" /><path
     d="m 553.50865,42.363177 c 6.77957,0 156.47657,0.143537 160.013,0.143537 12.93923,0 14.14235,5.588525 13.53467,10.001433 -0.87648,6.183963 -5.5825,13.910279 -17.35197,13.910279 -11.78189,0 -155.89337,-0.09475 -160.88646,-0.09475 -5.03265,0 -11.4824,-2.35762 -11.18007,-9.112713 0.28388,-6.758109 7.93692,-14.847791 15.87083,-14.847791 z"
     style="fill:#0955a2;fill-opacity:1;fill-rule:evenodd;stroke-width:1.77425"
     id="path18" /><path
     d="m 562.3405,93.106126 119.11872,0.283879 -19.4195,68.388195 c 20.5921,-0.29931 33.3115,0.72372 39.86504,-4.28765 7.19191,-5.49395 9.47608,-9.03642 13.08277,-19.11113 3.49048,-9.71116 17.64826,-62.203875 17.64826,-62.203875 l -211.48587,-0.14052 -25.57294,84.674195 46.17124,0.0215 z"
     style="fill:#0955a2;fill-opacity:1;fill-rule:evenodd;stroke-width:1.77425"
     id="path20" /><path
     d="m 590.36261,107.21175 c 4.62652,0 52.0346,0 56.24897,0 5.73525,0 15.04633,5.13059 14.40511,14.40813 -0.72691,10.42903 -6.53224,16.80851 -11.4643,20.15847 -4.11341,2.79444 -9.67142,5.24663 -14.53321,5.24663 -7.71709,0 -50.0313,0.0428 -55.91009,0.016 -5.75957,-0.016 -11.69318,-1.89348 -14.76849,-8.26374 -3.10865,-6.41621 -0.87328,-14.12709 5.72905,-22.32074 5.50922,-6.82216 16.72601,-9.24401 20.29296,-9.24401 z"
     style="fill:#0955a2;fill-opacity:1;fill-rule:evenodd;stroke-width:1.77425"
     id="path22" /></svg>
